<?xml version="1.0" encoding="UTF-8" standalone="no"?>
<!DOCTYPE svg PUBLIC "-//W3C//DTD SVG 1.1//EN"
 "http://www.w3.org/Graphics/SVG/1.1/DTD/svg11.dtd">
<!-- Generated by graphviz version 2.43.0 (0)
 -->
<!-- Title: Tree Pages: 1 -->
<svg width="1447pt" height="1031pt"
 viewBox="0.00 0.00 1447.00 1031.00" xmlns="http://www.w3.org/2000/svg" xmlns:xlink="http://www.w3.org/1999/xlink">
<g id="graph0" class="graph" transform="scale(1 1) rotate(0) translate(4 1027)">
<title>Tree</title>
<polygon fill="white" stroke="transparent" points="-4,4 -4,-1027 1443,-1027 1443,4 -4,4"/>
<!-- 0 -->
<g id="node1" class="node">
<title>0</title>
<path fill="#1a1aff" stroke="black" d="M992.5,-952C992.5,-952 801.5,-952 801.5,-952 795.5,-952 789.5,-946 789.5,-940 789.5,-940 789.5,-856 789.5,-856 789.5,-850 795.5,-844 801.5,-844 801.5,-844 992.5,-844 992.5,-844 998.5,-844 1004.5,-850 1004.5,-856 1004.5,-856 1004.5,-940 1004.5,-940 1004.5,-946 998.5,-952 992.5,-952"/>
<text text-anchor="start" x="840.5" y="-933.6" font-family="Arial Bold" font-size="18.00" fill="#e5e5e5">bpm ≤ 101.27</text>
<text text-anchor="start" x="852.5" y="-913.6" font-family="Arial Bold" font-size="18.00" fill="#e5e5e5">gini = 0.75</text>
<text text-anchor="start" x="836" y="-893.6" font-family="Arial Bold" font-size="18.00" fill="#e5e5e5">samples = 200</text>
<text text-anchor="start" x="802.5" y="-873.6" font-family="Arial Bold" font-size="18.00" fill="#e5e5e5">value = [50, 50, 50, 50]</text>
<text text-anchor="start" x="797.5" y="-853.6" font-family="Arial Bold" font-size="18.00" fill="#e5e5e5">class = minimal techno</text>
</g>
<!-- 1 -->
<g id="node2" class="node">
<title>1</title>
<path fill="#00ffff" stroke="black" d="M866,-798C866,-798 714,-798 714,-798 708,-798 702,-792 702,-786 702,-786 702,-722 702,-722 702,-716 708,-710 714,-710 714,-710 866,-710 866,-710 872,-710 878,-716 878,-722 878,-722 878,-786 878,-786 878,-792 872,-798 866,-798"/>
<text text-anchor="start" x="750.5" y="-779.6" font-family="Arial Bold" font-size="18.00">gini = 0.0</text>
<text text-anchor="start" x="734" y="-759.6" font-family="Arial Bold" font-size="18.00">samples = 46</text>
<text text-anchor="start" x="710" y="-739.6" font-family="Arial Bold" font-size="18.00">value = [0, 0, 0, 46]</text>
<text text-anchor="start" x="722" y="-719.6" font-family="Arial Bold" font-size="18.00">class = dubstep</text>
</g>
<!-- 0&#45;&gt;1 -->
<g id="edge1" class="edge">
<title>0&#45;&gt;1</title>
<path fill="none" stroke="black" d="M856.85,-843.72C847.7,-831.57 837.99,-818.68 828.89,-806.61"/>
<polygon fill="black" stroke="black" points="831.51,-804.27 822.7,-798.39 825.92,-808.49 831.51,-804.27"/>
<text text-anchor="middle" x="819.22" y="-818.75" font-family="Helvetica,sans-Serif" font-size="18.00">True</text>
</g>
<!-- 2 -->
<g id="node3" class="node">
<title>2</title>
<path fill="#1a1aff" stroke="black" d="M1099.5,-808C1099.5,-808 908.5,-808 908.5,-808 902.5,-808 896.5,-802 896.5,-796 896.5,-796 896.5,-712 896.5,-712 896.5,-706 902.5,-700 908.5,-700 908.5,-700 1099.5,-700 1099.5,-700 1105.5,-700 1111.5,-706 1111.5,-712 1111.5,-712 1111.5,-796 1111.5,-796 1111.5,-802 1105.5,-808 1099.5,-808"/>
<text text-anchor="start" x="942.5" y="-789.6" font-family="Arial Bold" font-size="18.00" fill="#e5e5e5">bpm ≤ 136.425</text>
<text text-anchor="start" x="954.5" y="-769.6" font-family="Arial Bold" font-size="18.00" fill="#e5e5e5">gini = 0.683</text>
<text text-anchor="start" x="943" y="-749.6" font-family="Arial Bold" font-size="18.00" fill="#e5e5e5">samples = 154</text>
<text text-anchor="start" x="914.5" y="-729.6" font-family="Arial Bold" font-size="18.00" fill="#e5e5e5">value = [50, 50, 50, 4]</text>
<text text-anchor="start" x="904.5" y="-709.6" font-family="Arial Bold" font-size="18.00" fill="#e5e5e5">class = minimal techno</text>
</g>
<!-- 0&#45;&gt;2 -->
<g id="edge2" class="edge">
<title>0&#45;&gt;2</title>
<path fill="none" stroke="black" d="M937.15,-843.72C943.94,-834.71 951.03,-825.3 957.95,-816.11"/>
<polygon fill="black" stroke="black" points="960.76,-818.2 963.98,-808.11 955.17,-813.99 960.76,-818.2"/>
<text text-anchor="middle" x="967.46" y="-828.46" font-family="Helvetica,sans-Serif" font-size="18.00">False</text>
</g>
<!-- 3 -->
<g id="node4" class="node">
<title>3</title>
<path fill="#ff00ff" stroke="black" d="M852,-664C852,-664 634,-664 634,-664 628,-664 622,-658 622,-652 622,-652 622,-568 622,-568 622,-562 628,-556 634,-556 634,-556 852,-556 852,-556 858,-556 864,-562 864,-568 864,-568 864,-652 864,-652 864,-658 858,-664 852,-664"/>
<text text-anchor="start" x="681.5" y="-645.6" font-family="Arial Bold" font-size="18.00">bpm ≤ 124.195</text>
<text text-anchor="start" x="703.5" y="-625.6" font-family="Arial Bold" font-size="18.00">gini = 0.5</text>
<text text-anchor="start" x="687" y="-605.6" font-family="Arial Bold" font-size="18.00">samples = 98</text>
<text text-anchor="start" x="658.5" y="-585.6" font-family="Arial Bold" font-size="18.00">value = [48, 0, 50, 0]</text>
<text text-anchor="start" x="630" y="-565.6" font-family="Arial Bold" font-size="18.00">class = progressive house</text>
</g>
<!-- 2&#45;&gt;3 -->
<g id="edge3" class="edge">
<title>2&#45;&gt;3</title>
<path fill="none" stroke="black" d="M906.44,-699.92C887.82,-689.79 868.24,-679.14 849.35,-668.86"/>
<polygon fill="black" stroke="black" points="850.9,-665.72 840.44,-664.01 847.55,-671.87 850.9,-665.72"/>
</g>
<!-- 14 -->
<g id="node15" class="node">
<title>14</title>
<path fill="#39ff14" stroke="black" d="M1251.5,-664C1251.5,-664 1022.5,-664 1022.5,-664 1016.5,-664 1010.5,-658 1010.5,-652 1010.5,-652 1010.5,-568 1010.5,-568 1010.5,-562 1016.5,-556 1022.5,-556 1022.5,-556 1251.5,-556 1251.5,-556 1257.5,-556 1263.5,-562 1263.5,-568 1263.5,-568 1263.5,-652 1263.5,-652 1263.5,-658 1257.5,-664 1251.5,-664"/>
<text text-anchor="start" x="1018.5" y="-645.6" font-family="Arial Bold" font-size="18.00">dynamic complexity ≤ 2.607</text>
<text text-anchor="start" x="1087.5" y="-625.6" font-family="Arial Bold" font-size="18.00">gini = 0.196</text>
<text text-anchor="start" x="1081" y="-605.6" font-family="Arial Bold" font-size="18.00">samples = 56</text>
<text text-anchor="start" x="1057" y="-585.6" font-family="Arial Bold" font-size="18.00">value = [2, 50, 0, 4]</text>
<text text-anchor="start" x="1062" y="-565.6" font-family="Arial Bold" font-size="18.00">class = psytrance</text>
</g>
<!-- 2&#45;&gt;14 -->
<g id="edge14" class="edge">
<title>2&#45;&gt;14</title>
<path fill="none" stroke="black" d="M1053.9,-699.72C1062.51,-690.53 1071.51,-680.92 1080.29,-671.55"/>
<polygon fill="black" stroke="black" points="1082.98,-673.8 1087.26,-664.11 1077.87,-669.01 1082.98,-673.8"/>
</g>
<!-- 4 -->
<g id="node5" class="node">
<title>4</title>
<path fill="#ff00ff" stroke="black" d="M477,-520C477,-520 259,-520 259,-520 253,-520 247,-514 247,-508 247,-508 247,-424 247,-424 247,-418 253,-412 259,-412 259,-412 477,-412 477,-412 483,-412 489,-418 489,-424 489,-424 489,-508 489,-508 489,-514 483,-520 477,-520"/>
<text text-anchor="start" x="260" y="-501.6" font-family="Arial Bold" font-size="18.00">dissonance mean ≤ 0.483</text>
<text text-anchor="start" x="318.5" y="-481.6" font-family="Arial Bold" font-size="18.00">gini = 0.087</text>
<text text-anchor="start" x="312" y="-461.6" font-family="Arial Bold" font-size="18.00">samples = 44</text>
<text text-anchor="start" x="288" y="-441.6" font-family="Arial Bold" font-size="18.00">value = [2, 0, 42, 0]</text>
<text text-anchor="start" x="255" y="-421.6" font-family="Arial Bold" font-size="18.00">class = progressive house</text>
</g>
<!-- 3&#45;&gt;4 -->
<g id="edge4" class="edge">
<title>3&#45;&gt;4</title>
<path fill="none" stroke="black" d="M621.77,-563.09C582.44,-548.2 538.66,-531.62 498.68,-516.48"/>
<polygon fill="black" stroke="black" points="499.73,-513.14 489.14,-512.87 497.25,-519.69 499.73,-513.14"/>
</g>
<!-- 7 -->
<g id="node8" class="node">
<title>7</title>
<path fill="#1a1aff" stroke="black" d="M838.5,-520C838.5,-520 647.5,-520 647.5,-520 641.5,-520 635.5,-514 635.5,-508 635.5,-508 635.5,-424 635.5,-424 635.5,-418 641.5,-412 647.5,-412 647.5,-412 838.5,-412 838.5,-412 844.5,-412 850.5,-418 850.5,-424 850.5,-424 850.5,-508 850.5,-508 850.5,-514 844.5,-520 838.5,-520"/>
<text text-anchor="start" x="659" y="-501.6" font-family="Arial Bold" font-size="18.00" fill="#e5e5e5">mfcc5 mean ≤ 2.634</text>
<text text-anchor="start" x="693.5" y="-481.6" font-family="Arial Bold" font-size="18.00" fill="#e5e5e5">gini = 0.252</text>
<text text-anchor="start" x="687" y="-461.6" font-family="Arial Bold" font-size="18.00" fill="#e5e5e5">samples = 54</text>
<text text-anchor="start" x="663" y="-441.6" font-family="Arial Bold" font-size="18.00" fill="#e5e5e5">value = [46, 0, 8, 0]</text>
<text text-anchor="start" x="643.5" y="-421.6" font-family="Arial Bold" font-size="18.00" fill="#e5e5e5">class = minimal techno</text>
</g>
<!-- 3&#45;&gt;7 -->
<g id="edge7" class="edge">
<title>3&#45;&gt;7</title>
<path fill="none" stroke="black" d="M743,-555.72C743,-547.44 743,-538.82 743,-530.34"/>
<polygon fill="black" stroke="black" points="746.5,-530.11 743,-520.11 739.5,-530.11 746.5,-530.11"/>
</g>
<!-- 5 -->
<g id="node6" class="node">
<title>5</title>
<path fill="#ff00ff" stroke="black" d="M230,-366C230,-366 12,-366 12,-366 6,-366 0,-360 0,-354 0,-354 0,-290 0,-290 0,-284 6,-278 12,-278 12,-278 230,-278 230,-278 236,-278 242,-284 242,-290 242,-290 242,-354 242,-354 242,-360 236,-366 230,-366"/>
<text text-anchor="start" x="81.5" y="-347.6" font-family="Arial Bold" font-size="18.00">gini = 0.0</text>
<text text-anchor="start" x="65" y="-327.6" font-family="Arial Bold" font-size="18.00">samples = 42</text>
<text text-anchor="start" x="41" y="-307.6" font-family="Arial Bold" font-size="18.00">value = [0, 0, 42, 0]</text>
<text text-anchor="start" x="8" y="-287.6" font-family="Arial Bold" font-size="18.00">class = progressive house</text>
</g>
<!-- 4&#45;&gt;5 -->
<g id="edge5" class="edge">
<title>4&#45;&gt;5</title>
<path fill="none" stroke="black" d="M275.68,-411.92C252.45,-398.57 227.65,-384.31 204.86,-371.21"/>
<polygon fill="black" stroke="black" points="206.32,-368.01 195.9,-366.06 202.83,-374.08 206.32,-368.01"/>
</g>
<!-- 6 -->
<g id="node7" class="node">
<title>6</title>
<path fill="#1a1aff" stroke="black" d="M463.5,-366C463.5,-366 272.5,-366 272.5,-366 266.5,-366 260.5,-360 260.5,-354 260.5,-354 260.5,-290 260.5,-290 260.5,-284 266.5,-278 272.5,-278 272.5,-278 463.5,-278 463.5,-278 469.5,-278 475.5,-284 475.5,-290 475.5,-290 475.5,-354 475.5,-354 475.5,-360 469.5,-366 463.5,-366"/>
<text text-anchor="start" x="328.5" y="-347.6" font-family="Arial Bold" font-size="18.00" fill="#e5e5e5">gini = 0.0</text>
<text text-anchor="start" x="316.5" y="-327.6" font-family="Arial Bold" font-size="18.00" fill="#e5e5e5">samples = 2</text>
<text text-anchor="start" x="293" y="-307.6" font-family="Arial Bold" font-size="18.00" fill="#e5e5e5">value = [2, 0, 0, 0]</text>
<text text-anchor="start" x="268.5" y="-287.6" font-family="Arial Bold" font-size="18.00" fill="#e5e5e5">class = minimal techno</text>
</g>
<!-- 4&#45;&gt;6 -->
<g id="edge6" class="edge">
<title>4&#45;&gt;6</title>
<path fill="none" stroke="black" d="M368,-411.72C368,-400.27 368,-388.17 368,-376.7"/>
<polygon fill="black" stroke="black" points="371.5,-376.39 368,-366.39 364.5,-376.39 371.5,-376.39"/>
</g>
<!-- 8 -->
<g id="node9" class="node">
<title>8</title>
<path fill="#ff00ff" stroke="black" d="M724,-366C724,-366 506,-366 506,-366 500,-366 494,-360 494,-354 494,-354 494,-290 494,-290 494,-284 500,-278 506,-278 506,-278 724,-278 724,-278 730,-278 736,-284 736,-290 736,-290 736,-354 736,-354 736,-360 730,-366 724,-366"/>
<text text-anchor="start" x="575.5" y="-347.6" font-family="Arial Bold" font-size="18.00">gini = 0.0</text>
<text text-anchor="start" x="563.5" y="-327.6" font-family="Arial Bold" font-size="18.00">samples = 6</text>
<text text-anchor="start" x="540" y="-307.6" font-family="Arial Bold" font-size="18.00">value = [0, 0, 6, 0]</text>
<text text-anchor="start" x="502" y="-287.6" font-family="Arial Bold" font-size="18.00">class = progressive house</text>
</g>
<!-- 7&#45;&gt;8 -->
<g id="edge8" class="edge">
<title>7&#45;&gt;8</title>
<path fill="none" stroke="black" d="M694.97,-411.72C683.81,-399.34 671.96,-386.19 660.89,-373.91"/>
<polygon fill="black" stroke="black" points="663.41,-371.48 654.11,-366.39 658.21,-376.16 663.41,-371.48"/>
</g>
<!-- 9 -->
<g id="node10" class="node">
<title>9</title>
<path fill="#1a1aff" stroke="black" d="M999.5,-376C999.5,-376 766.5,-376 766.5,-376 760.5,-376 754.5,-370 754.5,-364 754.5,-364 754.5,-280 754.5,-280 754.5,-274 760.5,-268 766.5,-268 766.5,-268 999.5,-268 999.5,-268 1005.5,-268 1011.5,-274 1011.5,-280 1011.5,-280 1011.5,-364 1011.5,-364 1011.5,-370 1005.5,-376 999.5,-376"/>
<text text-anchor="start" x="762.5" y="-357.6" font-family="Arial Bold" font-size="18.00" fill="#e5e5e5">chords changes rate ≤ 0.014</text>
<text text-anchor="start" x="838.5" y="-337.6" font-family="Arial Bold" font-size="18.00" fill="#e5e5e5">gini = 0.08</text>
<text text-anchor="start" x="827" y="-317.6" font-family="Arial Bold" font-size="18.00" fill="#e5e5e5">samples = 48</text>
<text text-anchor="start" x="803" y="-297.6" font-family="Arial Bold" font-size="18.00" fill="#e5e5e5">value = [46, 0, 2, 0]</text>
<text text-anchor="start" x="783.5" y="-277.6" font-family="Arial Bold" font-size="18.00" fill="#e5e5e5">class = minimal techno</text>
</g>
<!-- 7&#45;&gt;9 -->
<g id="edge9" class="edge">
<title>7&#45;&gt;9</title>
<path fill="none" stroke="black" d="M795.53,-411.72C804.68,-402.44 814.26,-392.73 823.58,-383.27"/>
<polygon fill="black" stroke="black" points="826.11,-385.68 830.64,-376.11 821.13,-380.77 826.11,-385.68"/>
</g>
<!-- 10 -->
<g id="node11" class="node">
<title>10</title>
<path fill="#1a1aff" stroke="black" d="M887,-232C887,-232 593,-232 593,-232 587,-232 581,-226 581,-220 581,-220 581,-136 581,-136 581,-130 587,-124 593,-124 593,-124 887,-124 887,-124 893,-124 899,-130 899,-136 899,-136 899,-220 899,-220 899,-226 893,-232 887,-232"/>
<text text-anchor="start" x="589" y="-213.6" font-family="Arial Bold" font-size="18.00" fill="#e5e5e5">spectral flatness high mean ≤ 0.018</text>
<text text-anchor="start" x="695.5" y="-193.6" font-family="Arial Bold" font-size="18.00" fill="#e5e5e5">gini = 0.48</text>
<text text-anchor="start" x="688.5" y="-173.6" font-family="Arial Bold" font-size="18.00" fill="#e5e5e5">samples = 5</text>
<text text-anchor="start" x="665" y="-153.6" font-family="Arial Bold" font-size="18.00" fill="#e5e5e5">value = [3, 0, 2, 0]</text>
<text text-anchor="start" x="640.5" y="-133.6" font-family="Arial Bold" font-size="18.00" fill="#e5e5e5">class = minimal techno</text>
</g>
<!-- 9&#45;&gt;10 -->
<g id="edge10" class="edge">
<title>9&#45;&gt;10</title>
<path fill="none" stroke="black" d="M829.35,-267.72C820,-258.44 810.22,-248.73 800.7,-239.27"/>
<polygon fill="black" stroke="black" points="803.04,-236.67 793.48,-232.11 798.11,-241.64 803.04,-236.67"/>
</g>
<!-- 13 -->
<g id="node14" class="node">
<title>13</title>
<path fill="#1a1aff" stroke="black" d="M1120.5,-222C1120.5,-222 929.5,-222 929.5,-222 923.5,-222 917.5,-216 917.5,-210 917.5,-210 917.5,-146 917.5,-146 917.5,-140 923.5,-134 929.5,-134 929.5,-134 1120.5,-134 1120.5,-134 1126.5,-134 1132.5,-140 1132.5,-146 1132.5,-146 1132.5,-210 1132.5,-210 1132.5,-216 1126.5,-222 1120.5,-222"/>
<text text-anchor="start" x="985.5" y="-203.6" font-family="Arial Bold" font-size="18.00" fill="#e5e5e5">gini = 0.0</text>
<text text-anchor="start" x="969" y="-183.6" font-family="Arial Bold" font-size="18.00" fill="#e5e5e5">samples = 43</text>
<text text-anchor="start" x="945" y="-163.6" font-family="Arial Bold" font-size="18.00" fill="#e5e5e5">value = [43, 0, 0, 0]</text>
<text text-anchor="start" x="925.5" y="-143.6" font-family="Arial Bold" font-size="18.00" fill="#e5e5e5">class = minimal techno</text>
</g>
<!-- 9&#45;&gt;13 -->
<g id="edge13" class="edge">
<title>9&#45;&gt;13</title>
<path fill="none" stroke="black" d="M936.28,-267.72C948.78,-255.22 962.06,-241.94 974.44,-229.56"/>
<polygon fill="black" stroke="black" points="977.01,-231.94 981.61,-222.39 972.06,-226.99 977.01,-231.94"/>
</g>
<!-- 11 -->
<g id="node12" class="node">
<title>11</title>
<path fill="#1a1aff" stroke="black" d="M712.5,-88C712.5,-88 521.5,-88 521.5,-88 515.5,-88 509.5,-82 509.5,-76 509.5,-76 509.5,-12 509.5,-12 509.5,-6 515.5,0 521.5,0 521.5,0 712.5,0 712.5,0 718.5,0 724.5,-6 724.5,-12 724.5,-12 724.5,-76 724.5,-76 724.5,-82 718.5,-88 712.5,-88"/>
<text text-anchor="start" x="577.5" y="-69.6" font-family="Arial Bold" font-size="18.00" fill="#e5e5e5">gini = 0.0</text>
<text text-anchor="start" x="565.5" y="-49.6" font-family="Arial Bold" font-size="18.00" fill="#e5e5e5">samples = 3</text>
<text text-anchor="start" x="542" y="-29.6" font-family="Arial Bold" font-size="18.00" fill="#e5e5e5">value = [3, 0, 0, 0]</text>
<text text-anchor="start" x="517.5" y="-9.6" font-family="Arial Bold" font-size="18.00" fill="#e5e5e5">class = minimal techno</text>
</g>
<!-- 10&#45;&gt;11 -->
<g id="edge11" class="edge">
<title>10&#45;&gt;11</title>
<path fill="none" stroke="black" d="M690.33,-123.69C681.78,-114.52 672.92,-105.02 664.44,-95.91"/>
<polygon fill="black" stroke="black" points="666.8,-93.31 657.42,-88.38 661.68,-98.08 666.8,-93.31"/>
</g>
<!-- 12 -->
<g id="node13" class="node">
<title>12</title>
<path fill="#ff00ff" stroke="black" d="M973,-88C973,-88 755,-88 755,-88 749,-88 743,-82 743,-76 743,-76 743,-12 743,-12 743,-6 749,0 755,0 755,0 973,0 973,0 979,0 985,-6 985,-12 985,-12 985,-76 985,-76 985,-82 979,-88 973,-88"/>
<text text-anchor="start" x="824.5" y="-69.6" font-family="Arial Bold" font-size="18.00">gini = 0.0</text>
<text text-anchor="start" x="812.5" y="-49.6" font-family="Arial Bold" font-size="18.00">samples = 2</text>
<text text-anchor="start" x="789" y="-29.6" font-family="Arial Bold" font-size="18.00">value = [0, 0, 2, 0]</text>
<text text-anchor="start" x="751" y="-9.6" font-family="Arial Bold" font-size="18.00">class = progressive house</text>
</g>
<!-- 10&#45;&gt;12 -->
<g id="edge12" class="edge">
<title>10&#45;&gt;12</title>
<path fill="none" stroke="black" d="M790.08,-123.69C798.69,-114.52 807.62,-105.02 816.17,-95.91"/>
<polygon fill="black" stroke="black" points="818.95,-98.06 823.25,-88.38 813.85,-93.27 818.95,-98.06"/>
</g>
<!-- 15 -->
<g id="node16" class="node">
<title>15</title>
<path fill="#39ff14" stroke="black" d="M1229.5,-520C1229.5,-520 1044.5,-520 1044.5,-520 1038.5,-520 1032.5,-514 1032.5,-508 1032.5,-508 1032.5,-424 1032.5,-424 1032.5,-418 1038.5,-412 1044.5,-412 1044.5,-412 1229.5,-412 1229.5,-412 1235.5,-412 1241.5,-418 1241.5,-424 1241.5,-424 1241.5,-508 1241.5,-508 1241.5,-514 1235.5,-520 1229.5,-520"/>
<text text-anchor="start" x="1040.5" y="-501.6" font-family="Arial Bold" font-size="18.00">mfcc1 mean ≤ &#45;656.653</text>
<text text-anchor="start" x="1087.5" y="-481.6" font-family="Arial Bold" font-size="18.00">gini = 0.074</text>
<text text-anchor="start" x="1081" y="-461.6" font-family="Arial Bold" font-size="18.00">samples = 52</text>
<text text-anchor="start" x="1057" y="-441.6" font-family="Arial Bold" font-size="18.00">value = [2, 50, 0, 0]</text>
<text text-anchor="start" x="1062" y="-421.6" font-family="Arial Bold" font-size="18.00">class = psytrance</text>
</g>
<!-- 14&#45;&gt;15 -->
<g id="edge15" class="edge">
<title>14&#45;&gt;15</title>
<path fill="none" stroke="black" d="M1137,-555.72C1137,-547.44 1137,-538.82 1137,-530.34"/>
<polygon fill="black" stroke="black" points="1140.5,-530.11 1137,-520.11 1133.5,-530.11 1140.5,-530.11"/>
</g>
<!-- 18 -->
<g id="node19" class="node">
<title>18</title>
<path fill="#00ffff" stroke="black" d="M1414,-510C1414,-510 1272,-510 1272,-510 1266,-510 1260,-504 1260,-498 1260,-498 1260,-434 1260,-434 1260,-428 1266,-422 1272,-422 1272,-422 1414,-422 1414,-422 1420,-422 1426,-428 1426,-434 1426,-434 1426,-498 1426,-498 1426,-504 1420,-510 1414,-510"/>
<text text-anchor="start" x="1303.5" y="-491.6" font-family="Arial Bold" font-size="18.00">gini = 0.0</text>
<text text-anchor="start" x="1291.5" y="-471.6" font-family="Arial Bold" font-size="18.00">samples = 4</text>
<text text-anchor="start" x="1268" y="-451.6" font-family="Arial Bold" font-size="18.00">value = [0, 0, 0, 4]</text>
<text text-anchor="start" x="1275" y="-431.6" font-family="Arial Bold" font-size="18.00">class = dubstep</text>
</g>
<!-- 14&#45;&gt;18 -->
<g id="edge18" class="edge">
<title>14&#45;&gt;18</title>
<path fill="none" stroke="black" d="M1214,-555.92C1233.03,-542.81 1253.32,-528.82 1272.05,-515.91"/>
<polygon fill="black" stroke="black" points="1274.28,-518.62 1280.53,-510.06 1270.31,-512.86 1274.28,-518.62"/>
</g>
<!-- 16 -->
<g id="node17" class="node">
<title>16</title>
<path fill="#1a1aff" stroke="black" d="M1232.5,-366C1232.5,-366 1041.5,-366 1041.5,-366 1035.5,-366 1029.5,-360 1029.5,-354 1029.5,-354 1029.5,-290 1029.5,-290 1029.5,-284 1035.5,-278 1041.5,-278 1041.5,-278 1232.5,-278 1232.5,-278 1238.5,-278 1244.5,-284 1244.5,-290 1244.5,-290 1244.5,-354 1244.5,-354 1244.5,-360 1238.5,-366 1232.5,-366"/>
<text text-anchor="start" x="1097.5" y="-347.6" font-family="Arial Bold" font-size="18.00" fill="#e5e5e5">gini = 0.0</text>
<text text-anchor="start" x="1085.5" y="-327.6" font-family="Arial Bold" font-size="18.00" fill="#e5e5e5">samples = 2</text>
<text text-anchor="start" x="1062" y="-307.6" font-family="Arial Bold" font-size="18.00" fill="#e5e5e5">value = [2, 0, 0, 0]</text>
<text text-anchor="start" x="1037.5" y="-287.6" font-family="Arial Bold" font-size="18.00" fill="#e5e5e5">class = minimal techno</text>
</g>
<!-- 15&#45;&gt;16 -->
<g id="edge16" class="edge">
<title>15&#45;&gt;16</title>
<path fill="none" stroke="black" d="M1137,-411.72C1137,-400.27 1137,-388.17 1137,-376.7"/>
<polygon fill="black" stroke="black" points="1140.5,-376.39 1137,-366.39 1133.5,-376.39 1140.5,-376.39"/>
</g>
<!-- 17 -->
<g id="node18" class="node">
<title>17</title>
<path fill="#39ff14" stroke="black" d="M1427,-366C1427,-366 1275,-366 1275,-366 1269,-366 1263,-360 1263,-354 1263,-354 1263,-290 1263,-290 1263,-284 1269,-278 1275,-278 1275,-278 1427,-278 1427,-278 1433,-278 1439,-284 1439,-290 1439,-290 1439,-354 1439,-354 1439,-360 1433,-366 1427,-366"/>
<text text-anchor="start" x="1311.5" y="-347.6" font-family="Arial Bold" font-size="18.00">gini = 0.0</text>
<text text-anchor="start" x="1295" y="-327.6" font-family="Arial Bold" font-size="18.00">samples = 50</text>
<text text-anchor="start" x="1271" y="-307.6" font-family="Arial Bold" font-size="18.00">value = [0, 50, 0, 0]</text>
<text text-anchor="start" x="1276" y="-287.6" font-family="Arial Bold" font-size="18.00">class = psytrance</text>
</g>
<!-- 15&#45;&gt;17 -->
<g id="edge17" class="edge">
<title>15&#45;&gt;17</title>
<path fill="none" stroke="black" d="M1216.99,-411.92C1236.85,-398.75 1258.03,-384.69 1277.55,-371.74"/>
<polygon fill="black" stroke="black" points="1279.71,-374.51 1286.1,-366.06 1275.84,-368.68 1279.71,-374.51"/>
</g>
</g>
</svg>
